# xmcd
# 
# Track frame offsets:
#     182
#     9747
#     21512
#     33380
#     46600
#     59420
#     69940
#     80222
#     91567
#     106252
#     118230
#     130017
#     140165
#     149225
#     159500
#     170017
#     182452
#     201357
#     212925
#     223037
# 
# Disc length: 3122
# 
# Revision: 5
# Processed by: cddbd v1.5.2PL0 Copyright (c) Steve Scherf et al.
# Submitted via: fre:ac v1.1beta1pre5
# 
DISCID=2e0c3014
DTITLE=Willie Nelson - The Classic, Unreleased Collection, Vol. 3
DYEAR=1995
DGENRE=Country
TTITLE0=I'll Take What I Can Get
TTITLE1=If It's Wrong To Love You
TTITLE2=Struttin' With Some Barbeque
TTITLE3=I'm Gonna Sit Right Down And Write Myself A Letter
TTITLE4=Till The End Of The World
TTITLE5=I'll Keep On Loving You
TTITLE6=It Should Be Easier Now
TTITLE7=Will You Remember Mine
TTITLE8=Who'll Buy My Memories
TTITLE9=Jimmy's Road
TTITLE10=I'm So Lonesome I Could Cry
TTITLE11=A House Is Not A Home
TTITLE12=My Bucket's Got A Hole In It
TTITLE13=Why Don't You Love Me
TTITLE14=Mind Your Own Business
TTITLE15=They'll Never Take Her Love From Me
TTITLE16=Move It On Over
TTITLE17=Why Should We Try Anymore
TTITLE18=My Son Calls Another Man Daddy
TTITLE19=I Saw The Light
EXTD=YEAR: 1995
EXTT0=
EXTT1=
EXTT2=
EXTT3=
EXTT4=
EXTT5=
EXTT6=
EXTT7=
EXTT8=
EXTT9=
EXTT10=
EXTT11=
EXTT12=
EXTT13=
EXTT14=
EXTT15=
EXTT16=
EXTT17=
EXTT18=
EXTT19=
PLAYORDER=
